/* XPM */
static char *XPM_icon[] = {
"24 16 17 1 12 8",
"  c None",
"s c #282a36",
"S c #282a36",
"r c #ff5555",
"R c #ff5555",
"g c #50fa7b",
"G c #50fa7b",
"y c #ffb86c",
"Y c #ffb86c",
"b c #6272a4",
"B c #6272a4",
"m c #bd93f9",
"M c #bd93f9",
"c c #8be9fd",
"C c #8be9fd",
"w c #f8f8f2",
"W c #f8f8f2",
"                        ",
" wwwwwwwwwwwwwwwwwwww   ",
" w                  w   ",
" w bb               w   ",
" w bb               www ",
" w bb YYYYYYYYY       w ",
" w bbYYYYYYYYY        w ",
" w bb     YYY         w ",
" w bb    YYY          w ",
" w bb   YYYYYYYYY     w ",
" w bb  YYYYYYYYY      w ",
" w bb               www ",
" w bb               w   ",
" w                  w   ",
" wwwwwwwwwwwwwwwwwwww   ",
"                        ",
};
