#define wifi_width 19
#define wifi_height 13
static char wifi_bits[] = {
  0x00, 0x00, 0x00, 0x00, 0x00, 0x00, 0x00, 0x00, 0x00, 0x00, 0x00, 0x00, 
  0x00, 0x00, 0x00, 0x00, 0x00, 0x00, 0x00, 0x00, 0x00, 0x00, 0x07, 0x00, 
  0x80, 0x08, 0x00, 0x00, 0x02, 0x00, 0x00, 0x07, 0x00, 0x00, 0x02, 0x00, 
  0x00, 0x00, 0x00, };
