#define wifi_width 19
#define wifi_height 13
static char wifi_bits[] = {
  0x00, 0x00, 0x00, 0x80, 0x0F, 0x00, 0x60, 0x30, 0x00, 0x10, 0x40, 0x00, 
  0x88, 0x8F, 0x00, 0x48, 0x90, 0x00, 0x20, 0x20, 0x00, 0x00, 0x07, 0x00, 
  0x80, 0x08, 0x00, 0x00, 0x02, 0x00, 0x00, 0x07, 0x00, 0x00, 0x02, 0x00, 
  0x00, 0x00, 0x00, };
